<?xml version="1.0" encoding="UTF-8"?>
<svg width="412px" height="234px" viewBox="0 0 412 234" version="1.1" xmlns="http://www.w3.org/2000/svg" xmlns:xlink="http://www.w3.org/1999/xlink">
    <title>Group 6</title>
    <defs>
        <filter color-interpolation-filters="auto" id="filter-1">
            <feColorMatrix in="SourceGraphic" type="matrix" values="0 0 0 0 0.913725 0 0 0 0 0.141176 0 0 0 0 0.172549 0 0 0 1.000000 0"></feColorMatrix>
        </filter>
        <polygon id="path-2" points="0 0 234.542363 0 234.542363 234 0 234"></polygon>
    </defs>
    <g id="Pages" stroke="none" stroke-width="1" fill="none" fill-rule="evenodd">
        <g id="Tablet_Contact-Us" transform="translate(-20.000000, -126.000000)">
            <g id="Group-6" transform="translate(20.000000, 126.000000)">
                <g filter="url(#filter-1)" id="Group-3-Copy-9">
                    <g>
                        <mask id="mask-3" fill="white">
                            <use xlink:href="#path-2"></use>
                        </mask>
                        <g id="Clip-2"></g>
                        <path d="M234.542363,234 L117.357985,234 C52.5475268,234 0,181.581859 0,116.913397 C0,52.3472848 52.4686148,0 117.184378,0 C182.002727,0 234.542363,52.4260144 234.542363,117.07873 L234.542363,234 Z" id="Fill-1" fill="#4DAFDF" mask="url(#mask-3)"></path>
                    </g>
                </g>
                <path d="M76.2932657,142.98874 C81.6932657,142.98874 86.1932657,142.08874 89.7932657,140.28874 C93.3932657,138.48874 96.7772657,135.86074 99.9452657,132.40474 L99.9452657,132.40474 L90.3332657,122.68474 C86.0132657,126.78874 81.5852657,128.84074 77.0492657,128.84074 C72.6572657,128.84074 69.1112657,127.32874 66.4112657,124.30474 C63.7112657,121.28074 62.3612657,117.46474 62.3612657,112.85674 L62.3612657,112.85674 L62.3612657,112.64074 C62.3612657,108.24874 63.6932657,104.52274 66.3572657,101.46274 C69.0212657,98.4027397 72.3692657,96.8727397 76.4012657,96.8727397 C79.1372657,96.8727397 81.4952657,97.3947397 83.4752657,98.4387397 C85.4552657,99.4827397 87.4892657,101.08474 89.5772657,103.24474 L89.5772657,103.24474 L99.6212657,92.4447397 C93.7172657,85.9647397 86.0132657,82.7247397 76.5092657,82.7247397 C67.7972657,82.7247397 60.5612657,85.6587397 54.8012657,91.5267397 C49.0412657,97.3947397 46.1612657,104.50474 46.1612657,112.85674 L46.1612657,112.85674 L46.1612657,113.07274 C46.1612657,121.35274 49.0412657,128.40874 54.8012657,134.24074 C60.5612657,140.07274 67.7252657,142.98874 76.2932657,142.98874 Z M130.775112,142.98874 C139.703112,142.98874 147.173112,140.07274 153.185112,134.24074 C159.197112,128.40874 162.203112,121.28074 162.203112,112.85674 L162.203112,112.85674 L162.203112,112.64074 C162.203112,104.21674 159.215112,97.1247397 153.239112,91.3647397 C147.263112,85.6047397 139.847112,82.7247397 130.991112,82.7247397 C122.063112,82.7247397 114.593112,85.6407397 108.581112,91.4727397 C102.569112,97.3047397 99.5631117,104.43274 99.5631117,112.85674 L99.5631117,112.85674 L99.5631117,113.07274 C99.5631117,121.49674 102.551112,128.58874 108.527112,134.34874 C114.503112,140.10874 121.919112,142.98874 130.775112,142.98874 Z M130.991112,128.84074 C126.527112,128.84074 122.873112,127.27474 120.029112,124.14274 C117.185112,121.01074 115.763112,117.24874 115.763112,112.85674 L115.763112,112.85674 L115.763112,112.64074 C115.763112,108.17674 117.131112,104.43274 119.867112,101.40874 C122.603112,98.3847397 126.239112,96.8727397 130.775112,96.8727397 C135.239112,96.8727397 138.893112,98.4387397 141.737112,101.57074 C144.581112,104.70274 146.003112,108.46474 146.003112,112.85674 L146.003112,112.85674 L146.003112,113.07274 C146.003112,117.53674 144.635112,121.28074 141.899112,124.30474 C139.163112,127.32874 135.527112,128.84074 130.991112,128.84074 Z M183.852958,141.69274 L183.852958,109.40074 C183.852958,105.58474 184.752958,102.66874 186.552958,100.65274 C188.352958,98.6367397 190.872958,97.6287397 194.112958,97.6287397 C200.736958,97.6287397 204.048958,101.55274 204.048958,109.40074 L204.048958,109.40074 L204.048958,141.69274 L220.464958,141.69274 L220.464958,104.21674 C220.464958,97.4487397 218.754958,92.1747397 215.334958,88.3947397 C211.914958,84.6147397 207.072958,82.7247397 200.808958,82.7247397 C194.328958,82.7247397 188.676958,85.8207397 183.852958,92.0127397 L183.852958,92.0127397 L183.852958,83.8047397 L167.436958,83.8047397 L167.436958,141.69274 L183.852958,141.69274 Z M247.622804,142.66474 C252.518804,142.66474 256.838804,141.54874 260.582804,139.31674 L260.582804,139.31674 L260.582804,126.14074 C258.134804,127.50874 255.434804,128.19274 252.482804,128.19274 C248.954804,128.19274 247.190804,126.32074 247.190804,122.57674 L247.190804,122.57674 L247.190804,97.8447397 L260.798804,97.8447397 L260.798804,83.8047397 L247.190804,83.8047397 L247.190804,69.0087397 L230.774804,69.0087397 L230.774804,83.8047397 L223.862804,83.8047397 L223.862804,97.8447397 L230.774804,97.8447397 L230.774804,125.27674 C230.774804,131.61274 232.232804,136.09474 235.148804,138.72274 C238.064804,141.35074 242.222804,142.66474 247.622804,142.66474 Z M282.66465,142.77274 C289.93665,142.77274 295.76865,140.32474 300.16065,135.42874 L300.16065,135.42874 L300.16065,141.69274 L316.03665,141.69274 L316.03665,108.10474 C316.03665,99.9687397 313.94865,93.8127397 309.77265,89.6367397 C305.45265,85.3167397 298.93665,83.1567397 290.22465,83.1567397 C282.52065,83.1567397 275.03265,84.7047397 267.76065,87.8007397 L267.76065,87.8007397 L271.86465,100.32874 C277.26465,98.2407397 282.59265,97.1967397 287.84865,97.1967397 C296.12865,97.1967397 300.26865,100.72474 300.26865,107.78074 L300.26865,107.78074 L300.26865,108.75274 C295.51665,107.16874 290.80065,106.37674 286.12065,106.37674 C278.99265,106.37674 273.32265,107.94274 269.11065,111.07474 C264.89865,114.20674 262.79265,118.79674 262.79265,124.84474 L262.79265,124.84474 L262.79265,125.06074 C262.79265,130.60474 264.68265,134.94274 268.46265,138.07474 C272.24265,141.20674 276.97665,142.77274 282.66465,142.77274 Z M287.63265,131.43274 C284.96865,131.43274 282.80865,130.80274 281.15265,129.54274 C279.49665,128.28274 278.66865,126.57274 278.66865,124.41274 L278.66865,124.41274 L278.66865,124.19674 C278.66865,121.60474 279.67665,119.62474 281.69265,118.25674 C283.70865,116.88874 286.48065,116.20474 290.00865,116.20474 C293.75265,116.20474 297.24465,116.92474 300.48465,118.36474 L300.48465,118.36474 L300.48465,121.28074 C300.48465,124.30474 299.31465,126.75274 296.97465,128.62474 C294.63465,130.49674 291.52065,131.43274 287.63265,131.43274 Z M350.862496,142.98874 C356.262496,142.98874 360.762496,142.08874 364.362496,140.28874 C367.962496,138.48874 371.346496,135.86074 374.514496,132.40474 L374.514496,132.40474 L364.902496,122.68474 C360.582496,126.78874 356.154496,128.84074 351.618496,128.84074 C347.226496,128.84074 343.680496,127.32874 340.980496,124.30474 C338.280496,121.28074 336.930496,117.46474 336.930496,112.85674 L336.930496,112.85674 L336.930496,112.64074 C336.930496,108.24874 338.262496,104.52274 340.926496,101.46274 C343.590496,98.4027397 346.938496,96.8727397 350.970496,96.8727397 C353.706496,96.8727397 356.064496,97.3947397 358.044496,98.4387397 C360.024496,99.4827397 362.058496,101.08474 364.146496,103.24474 L364.146496,103.24474 L374.190496,92.4447397 C368.286496,85.9647397 360.582496,82.7247397 351.078496,82.7247397 C342.366496,82.7247397 335.130496,85.6587397 329.370496,91.5267397 C323.610496,97.3947397 320.730496,104.50474 320.730496,112.85674 L320.730496,112.85674 L320.730496,113.07274 C320.730496,121.35274 323.610496,128.40874 329.370496,134.24074 C335.130496,140.07274 342.294496,142.98874 350.862496,142.98874 Z M398.108342,142.66474 C403.004342,142.66474 407.324342,141.54874 411.068342,139.31674 L411.068342,139.31674 L411.068342,126.14074 C408.620342,127.50874 405.920342,128.19274 402.968342,128.19274 C399.440342,128.19274 397.676342,126.32074 397.676342,122.57674 L397.676342,122.57674 L397.676342,97.8447397 L411.284342,97.8447397 L411.284342,83.8047397 L397.676342,83.8047397 L397.676342,69.0087397 L381.260342,69.0087397 L381.260342,83.8047397 L374.348342,83.8047397 L374.348342,97.8447397 L381.260342,97.8447397 L381.260342,125.27674 C381.260342,131.61274 382.718342,136.09474 385.634342,138.72274 C388.550342,141.35074 392.708342,142.66474 398.108342,142.66474 Z" id="contact" fill="#0D2548" fill-rule="nonzero"></path>
                <path d="M115.004249,179.216301 C118.844249,179.216301 122.193582,177.381635 125.052249,173.712301 L125.052249,173.712301 L125.052249,178.576301 L134.780249,178.576301 L134.780249,144.272301 L125.052249,144.272301 L125.052249,163.408301 C125.052249,165.669635 124.518916,167.397635 123.452249,168.592301 C122.385582,169.786968 120.892249,170.384301 118.972249,170.384301 C115.046916,170.384301 113.084249,168.058968 113.084249,163.408301 L113.084249,163.408301 L113.084249,144.272301 L103.356249,144.272301 L103.356249,166.480301 C103.356249,170.490968 104.369582,173.616301 106.396249,175.856301 C108.422916,178.096301 111.292249,179.216301 115.004249,179.216301 Z M152.956249,179.216301 C156.881582,179.216301 160.049582,178.288301 162.460249,176.432301 C164.870916,174.576301 166.076249,171.813635 166.076249,168.144301 L166.076249,168.144301 L166.076249,168.016301 C166.076249,166.522968 165.777582,165.200301 165.180249,164.048301 C164.582916,162.896301 163.729582,161.925635 162.620249,161.136301 C161.510916,160.346968 160.444249,159.717635 159.420249,159.248301 C158.396249,158.778968 157.158916,158.309635 155.708249,157.840301 C153.404249,157.114968 151.665582,156.453635 150.492249,155.856301 C149.318916,155.258968 148.732249,154.554968 148.732249,153.744301 L148.732249,153.744301 L148.732249,153.616301 C148.732249,152.933635 149.041582,152.368301 149.660249,151.920301 C150.278916,151.472301 151.164249,151.248301 152.316249,151.248301 C154.876249,151.248301 157.969582,152.314968 161.596249,154.448301 L161.596249,154.448301 L165.308249,147.728301 C161.297582,145.082968 157.030916,143.760301 152.508249,143.760301 C148.924249,143.760301 145.937582,144.730968 143.548249,146.672301 C141.158916,148.613635 139.964249,151.269635 139.964249,154.640301 L139.964249,154.640301 L139.964249,154.768301 C139.964249,156.346968 140.252249,157.744301 140.828249,158.960301 C141.404249,160.176301 142.236249,161.168301 143.324249,161.936301 C144.412249,162.704301 145.478916,163.322968 146.524249,163.792301 C147.569582,164.261635 148.796249,164.688301 150.204249,165.072301 C150.588249,165.200301 151.110916,165.360301 151.772249,165.552301 C152.433582,165.744301 152.934916,165.904301 153.276249,166.032301 C153.617582,166.160301 154.044249,166.309635 154.556249,166.480301 C155.068249,166.650968 155.452249,166.821635 155.708249,166.992301 C155.964249,167.162968 156.241582,167.344301 156.540249,167.536301 C156.838916,167.728301 157.041582,167.952301 157.148249,168.208301 C157.254916,168.464301 157.308249,168.741635 157.308249,169.040301 L157.308249,169.040301 L157.308249,169.168301 C157.308249,170.874968 155.942916,171.728301 153.212249,171.728301 C149.756249,171.728301 146.150916,170.362968 142.396249,167.632301 L142.396249,167.632301 L138.236249,174.032301 C142.673582,177.488301 147.580249,179.216301 152.956249,179.216301 Z" id="us" fill="#FFFFFF" fill-rule="nonzero"></path>
            </g>
        </g>
    </g>
</svg>